<svg width="1440" height="400" viewBox="0 0 1440 400" fill="none" xmlns="http://www.w3.org/2000/svg">
<line x1="46.5" y1="404.977" x2="46.5" y2="5.97656" stroke="white" stroke-opacity="0.05"/>
<line x1="960.5" y1="399" x2="960.5" stroke="white" stroke-opacity="0.05"/>
<line x1="116.5" y1="404.977" x2="116.5" y2="5.97656" stroke="white" stroke-opacity="0.05"/>
<line x1="1031.5" y1="399" x2="1031.5" stroke="white" stroke-opacity="0.05"/>
<line x1="185.5" y1="415.977" x2="185.5" y2="16.9766" stroke="white" stroke-opacity="0.05"/>
<line x1="1102.5" y1="410" x2="1102.5" y2="11" stroke="white" stroke-opacity="0.05"/>
<line x1="319.5" y1="400.977" x2="319.5" y2="1.97656" stroke="white" stroke-opacity="0.05"/>
<line x1="1238.5" y1="395" x2="1238.5" y2="-4" stroke="white" stroke-opacity="0.05"/>
<line x1="459.5" y1="406.977" x2="459.5" y2="7.97656" stroke="white" stroke-opacity="0.05"/>
<line x1="1381.5" y1="401" x2="1381.5" y2="2" stroke="white" stroke-opacity="0.05"/>
<line x1="600.5" y1="413.977" x2="600.5" y2="14.9766" stroke="white" stroke-opacity="0.05"/>
<line x1="740.5" y1="419.977" x2="740.5" y2="20.9766" stroke="white" stroke-opacity="0.05"/>
<line x1="884.5" y1="413.977" x2="884.5" y2="14.9766" stroke="white" stroke-opacity="0.05"/>
<line x1="250.5" y1="402.977" x2="250.5" y2="3.97656" stroke="white" stroke-opacity="0.05"/>
<line x1="1168.5" y1="397" x2="1168.5" y2="-2.00001" stroke="white" stroke-opacity="0.05"/>
<line x1="392.5" y1="402.977" x2="392.5" y2="3.97656" stroke="white" stroke-opacity="0.05"/>
<line x1="1313.5" y1="397" x2="1313.5" y2="-2.00001" stroke="white" stroke-opacity="0.05"/>
<line x1="529.5" y1="404.977" x2="529.5" y2="5.97655" stroke="white" stroke-opacity="0.05"/>
<line x1="667.5" y1="404.977" x2="667.5" y2="5.97655" stroke="white" stroke-opacity="0.05"/>
<line x1="800.5" y1="404.977" x2="800.5" y2="5.97655" stroke="white" stroke-opacity="0.05"/>
<line x1="1440" y1="36.4062" x2="1.33515e-05" y2="36.4062" stroke="white" stroke-opacity="0.05"/>
<line x1="1440" y1="102.191" x2="1.33515e-05" y2="102.191" stroke="white" stroke-opacity="0.05"/>
<line x1="1440" y1="170.098" x2="1.33515e-05" y2="170.098" stroke="white" stroke-opacity="0.05"/>
<line x1="1440" y1="240.125" x2="1.33515e-05" y2="240.125" stroke="white" stroke-opacity="0.05"/>
<line x1="1440" y1="318.641" x2="1.33287e-05" y2="318.641" stroke="white" stroke-opacity="0.05"/>
<line x1="1440" y1="384.426" x2="1.33254e-05" y2="384.426" stroke="white" stroke-opacity="0.05"/>
</svg>
